<svg width="512" height="512" viewBox="0 0 512 512" fill="none" xmlns="http://www.w3.org/2000/svg">
<path d="M244.8 119.2C168.8 119.2 108 180.8 108 256C108 332 169.6 392.8 244.8 392.8C320 392.8 381.6 332 381.6 256C381.6 180 320 119.2 244.8 119.2ZM252.8 376.8V370.4C252.8 365.6 249.6 362.4 244.8 362.4C240 362.4 236.8 365.6 236.8 370.4V376.8C176 372.8 128 324.8 124 264H130.4C135.2 264 138.4 260.8 138.4 256C138.4 251.2 135.2 248 130.4 248H124C128 187.2 176 139.2 236.8 135.2V141.6C236.8 146.4 240 149.6 244.8 149.6C249.6 149.6 252.8 146.4 252.8 141.6V135.2C313.6 139.2 361.6 187.2 365.6 248H359.2C354.4 248 351.2 251.2 351.2 256C351.2 260.8 354.4 264 359.2 264H365.6C361.6 324.8 312.8 372.8 252.8 376.8Z" fill="#4997D3"/>
<path d="M252.8 235.2V172C252.8 167.2 249.6 164 244.8 164C240 164 236.8 167.2 236.8 172V235.2C230.4 237.6 226.4 242.4 224 248H184C179.2 248 176 251.2 176 256C176 260.8 179.2 264 184 264H224C227.2 272.8 235.2 278.4 244.8 278.4C257.6 278.4 267.2 268 267.2 256C267.2 246.4 260.8 238.4 252.8 235.2ZM244.8 262.4C240.8 262.4 238.4 259.2 238.4 256C238.4 252.8 241.6 249.6 244.8 249.6C248 249.6 251.2 252.8 251.2 256C251.2 259.2 248 262.4 244.8 262.4Z" fill="#4997D3"/>
<path d="M444 229.6C440.8 226.4 436 226.4 432.8 229.6L422.4 240C414.4 148.8 337.6 76.7998 244.8 76.7998C145.6 76.7998 65.6001 157.6 65.6001 256C65.6001 354.4 145.6 435.2 244.8 435.2C318.4 435.2 383.2 391.2 410.4 323.2C412 319.2 410.4 314.4 405.6 312.8C401.6 311.2 396.8 312.8 395.2 317.6C370.4 379.2 311.2 419.2 244 419.2C154.4 419.2 80.8001 346.4 80.8001 256C80.8001 166.4 153.6 92.7998 244 92.7998C327.2 92.7998 396.8 156 405.6 236.8L397.6 228.8C394.4 225.6 389.6 225.6 386.4 228.8C383.2 232 383.2 236.8 386.4 240L407.2 260.8C411.2 264.8 418.4 264.8 422.4 260.8L443.2 240C447.2 237.6 447.2 232 444 229.6Z" fill="#4997D3"/>
</svg>
