<svg width="512" height="512" viewBox="0 0 512 512" fill="none" xmlns="http://www.w3.org/2000/svg">
<g clip-path="url(#clip0_39_13)">
<path fill-rule="evenodd" clip-rule="evenodd" d="M295.872 130.095C293.592 130.095 291.399 129.164 289.765 127.442C288.402 126.008 287.557 124.317 286.008 121.248C283.284 115.829 278.209 105.721 267.714 92.4308C263.371 86.9258 261.621 85.0475 260.388 83.8296C259.428 82.8837 256.976 80.5898 253.449 77.9944C250.783 81.1346 247.729 83.7865 244.317 85.9081C234.18 92.2307 224.216 91.9866 216.202 91.8008L215.643 91.7865C215.399 91.7865 190.94 91.2274 164.833 93.0339C146.353 94.3101 140.934 96.5601 136.977 98.74C133.378 100.732 126.683 104.432 123.601 111.285C122.267 114.238 121.88 117.133 121.551 119.456C121.378 120.747 121.221 121.865 120.92 122.982C119.615 127.771 115.944 129.749 112.949 129.992C111.142 130.15 106.626 129.892 103.559 124.272C102.785 122.853 102.038 121.003 101.351 118.795C100.089 114.781 99.0713 109.763 98.5553 105.018C96.6203 87.4544 101.279 73.061 104.218 66.0501C106.124 61.5054 111.86 49.6922 123.845 38.0934C144.604 18.0362 169.407 12.8893 185.823 9.47712C199.515 6.63846 209.091 6.22294 221.134 5.95101C230.511 5.73562 241.593 6.13768 252.804 10.782C258.539 13.1468 262.725 15.972 265.994 19.6713C268.489 22.51 269.491 24.733 270.652 27.2988C271.255 28.6181 271.929 30.1231 273.017 32.216C275.741 37.3916 277.39 40.5309 280.113 43.3552C281.346 44.6314 281.82 44.9042 283.569 45.9354C285.433 47.0393 287.984 48.5309 292.228 51.7132C297.447 55.627 300.902 58.2225 304.63 62.7098C307.01 65.5915 311.985 71.5838 313.949 80.4875C315.211 86.1648 314.623 90.6377 313.648 98.0507C313.017 102.84 309.776 111.627 308.788 114.194C304.601 125.191 302.48 128.373 298.494 129.664C297.65 129.95 296.764 130.095 295.872 130.095ZM251.485 59.2294C255.457 59.2294 258.898 61.6382 261.077 63.1585L261.305 63.3165C266.51 66.9287 270.208 70.3265 271.943 72.0335C273.821 73.8687 276.029 76.3062 280.689 82.1989C287.227 90.4852 291.857 97.6397 295.183 103.374C296.272 100.206 297.118 97.339 297.304 95.9049C298.193 89.0663 298.451 86.7724 297.849 84.0486C296.745 79.0444 293.849 75.5614 291.943 73.2531C289.462 70.2565 287.083 68.4795 282.352 64.9229C278.854 62.2987 276.847 61.1087 275.227 60.1628C273.077 58.901 271.055 57.7118 268.259 54.8014C263.9 50.2854 261.492 45.6976 258.438 39.891C257.104 37.353 256.259 35.4612 255.628 34.0845C254.668 31.9629 254.467 31.533 253.636 30.5871C252.589 29.3971 250.84 27.8193 246.524 26.028C238.166 22.5728 229.579 22.2713 221.535 22.4445C210.022 22.702 201.549 23.0754 189.205 25.6269C173.778 28.8245 152.66 33.2113 135.342 49.956C125.278 59.6907 120.633 69.6112 119.457 72.422C117.593 76.8519 114.884 84.9811 114.639 95.1457C116.061 93.5467 117.604 92.0608 119.256 90.7015C123.026 87.5765 126.754 85.5115 128.991 84.2783C135.972 80.4067 143.901 77.9127 163.701 76.5369C190.61 74.6729 215.026 75.232 216.045 75.2607L216.618 75.2751C223.313 75.433 229.65 75.5901 235.572 71.8917C238.668 69.9567 241.321 67.2042 243.443 63.7051C244.093 62.618 244.961 61.6773 245.993 60.9419C247.024 60.2066 248.196 59.6926 249.436 59.4323C250.11 59.2937 250.797 59.2258 251.485 59.2294Z" fill="#4997D3"/>
<path fill-rule="evenodd" clip-rule="evenodd" d="M206.511 267.586C200.238 267.588 193.984 266.905 187.859 265.549C181.81 264.216 166.054 259.743 150.583 247.069C143.171 240.99 129.566 227.585 121.838 206.08C119.731 200.216 118.354 193.909 117.565 189.593C112.16 187.17 107.199 183.514 102.998 178.826C97.6371 172.834 93.8947 165.58 92.1886 157.852C88.719 142.139 94.0526 126.712 106.826 115.558C110.267 112.562 115.486 112.905 118.481 116.347C121.478 119.788 121.134 125.007 117.693 128.002C106.61 137.68 107.055 148.633 108.316 154.296C110.552 164.417 118.165 172.992 127.255 175.629C128.791 176.074 130.164 176.956 131.208 178.168C132.252 179.38 132.92 180.869 133.132 182.454C133.763 187.085 135.24 194.596 137.376 200.518C144.001 218.954 156.143 230.295 161.046 234.324C173.763 244.733 186.523 248.375 191.411 249.463C205.347 252.531 216.831 250.51 221.132 249.492C232.86 246.724 240.758 241.277 244.142 238.954C246.58 237.277 252.946 232.545 259.425 224.875C268.787 213.792 275.684 198.724 279.411 181.276C279.756 179.656 280.58 178.177 281.777 177.032C282.974 175.886 284.487 175.127 286.121 174.853C289.762 174.237 293.734 171.096 297.003 166.252C300.557 160.961 302.867 154.309 303.325 148.016C303.813 141.277 302.465 132.618 293.232 129.65C288.889 128.259 286.509 123.6 287.9 119.256C289.291 114.912 293.949 112.532 298.294 113.923C306.122 116.447 312.215 121.45 315.899 128.417C319.011 134.281 320.358 141.463 319.8 149.191C319.14 158.266 315.829 167.843 310.71 175.456C306.194 182.166 300.56 187.012 294.467 189.52C289.951 207.8 282.424 223.255 272.059 235.527C264.575 244.387 257.235 249.992 253.521 252.544C249.735 255.14 239.686 262.063 224.948 265.547C220.976 266.466 214.54 267.586 206.511 267.586Z" fill="#4997D3"/>
<path fill-rule="evenodd" clip-rule="evenodd" d="M157.121 299.226C155.847 299.227 154.591 298.933 153.451 298.367C149.365 296.346 147.687 291.385 149.723 287.299C152.261 282.181 156.561 271.916 156.863 260.632C156.978 256.202 156.404 254.18 155.458 250.811C155.167 249.791 154.884 248.769 154.611 247.744C153.479 243.328 156.145 238.826 160.561 237.693C164.977 236.561 169.479 239.227 170.612 243.643C170.856 244.56 171.099 245.45 171.343 246.31C172.433 250.153 173.566 254.124 173.38 261.062C173.007 275.514 167.674 288.302 164.534 294.624C163.852 296.007 162.795 297.171 161.485 297.984C160.175 298.798 158.663 299.228 157.121 299.226ZM257.206 304.645C255.781 304.646 254.379 304.278 253.138 303.577C251.897 302.876 250.858 301.866 250.123 300.645C244.676 291.585 238.095 277.363 237.664 261.075C237.477 254.122 238.61 250.152 239.7 246.323C239.944 245.463 240.187 244.588 240.432 243.657C241.564 239.241 246.066 236.574 250.482 237.707C254.898 238.839 257.565 243.341 256.432 247.757C256.146 248.875 255.844 249.908 255.586 250.825C254.64 254.179 254.052 256.215 254.181 260.646C254.511 273.348 259.858 284.789 264.273 292.144C266.625 296.057 265.363 301.133 261.449 303.47C260.166 304.236 258.7 304.642 257.206 304.645Z" fill="#4997D3"/>
<path fill-rule="evenodd" clip-rule="evenodd" d="M413.132 506.091H8.26118C3.71646 506.091 0.0171394 502.406 0.00367752 497.862C-0.0824783 469.074 1.23678 397.118 15.588 350.839C19.4022 338.566 24.0178 328.545 30.1107 319.312C35.2289 311.571 49.9965 292.102 76.3755 278.696C100.548 266.396 123.673 264.575 138.812 265.206C140.792 265.288 142.676 266.082 144.117 267.442L208.963 328.33L277.392 267.313C278.818 266.038 280.642 265.297 282.554 265.219C297.693 264.588 320.804 266.423 344.991 278.71C371.37 292.128 386.137 311.584 391.255 319.326C397.363 328.559 401.979 338.567 405.778 350.853C412.373 372.086 416.961 401.132 419.427 437.145C420.76 456.586 421.434 477.574 421.361 497.862C421.376 502.421 417.677 506.091 413.132 506.091ZM210.195 489.576H404.86C404.745 472.286 404.1 454.709 402.967 438.279C400.587 403.527 396.228 375.756 390.02 355.742C386.637 344.86 382.781 336.431 377.49 328.43C373.089 321.777 360.386 305.047 337.505 293.42C318.007 283.499 299.269 281.42 286.151 281.621L214.324 345.663C212.781 347.034 210.782 347.779 208.718 347.752C206.655 347.726 204.676 346.929 203.169 345.519L135.112 281.606C122.008 281.434 103.328 283.512 83.8719 293.405C60.9904 305.031 48.2887 321.763 43.8866 328.414C38.5961 336.414 34.7397 344.83 31.3563 355.712C25.1486 375.726 20.7897 403.497 18.4096 438.249C17.277 454.679 16.6318 472.256 16.5169 489.546L210.195 489.576Z" fill="#4997D3"/>
<path fill-rule="evenodd" clip-rule="evenodd" d="M86.6262 506.091C82.0671 506.091 78.3687 502.392 78.3687 497.834V402.595C78.3687 398.036 82.068 394.337 86.6262 394.337C91.1843 394.337 94.8837 398.036 94.8837 402.595V497.834C94.8854 502.393 91.1861 506.091 86.6262 506.091ZM341.42 506.091C336.86 506.091 333.162 502.392 333.162 497.834V402.595C333.162 398.036 336.86 394.337 341.42 394.337C345.979 394.337 349.677 398.036 349.677 402.595V497.834C349.678 502.393 345.979 506.091 341.42 506.091ZM374.638 267.786C370.079 267.786 366.38 264.088 366.38 259.528V25.3371C366.38 20.778 370.079 17.0796 374.638 17.0796C379.197 17.0796 382.895 20.7789 382.895 25.3371V259.528C382.896 264.087 379.197 267.786 374.638 267.786Z" fill="#4997D3"/>
<path fill-rule="evenodd" clip-rule="evenodd" d="M503.741 153.478H374.638C370.079 153.478 366.38 149.78 366.38 145.221V45.666C366.381 44.1228 366.814 42.6104 367.63 41.3006C368.446 39.9907 369.612 38.9357 370.998 38.2551C372.383 37.5746 373.931 37.2957 375.466 37.4502C377.002 37.6046 378.463 38.1862 379.685 39.129L508.788 138.683C510.153 139.736 511.154 141.19 511.65 142.841C512.147 144.491 512.114 146.256 511.556 147.887C510.999 149.518 509.946 150.934 508.545 151.936C507.144 152.939 505.464 153.478 503.741 153.478ZM382.896 136.963H479.511L382.896 62.4691V136.963ZM251.543 476.214H165.636C161.077 476.214 157.379 472.514 157.379 467.956V366.868C157.379 362.309 161.077 358.61 165.636 358.61H251.543C256.102 358.61 259.8 362.309 259.8 366.868V467.956C259.802 469.041 259.59 470.116 259.176 471.119C258.762 472.122 258.154 473.033 257.386 473.8C256.619 474.567 255.708 475.175 254.705 475.59C253.702 476.004 252.628 476.216 251.543 476.214ZM173.909 459.698H243.299V375.125H173.909V459.698Z" fill="#4997D3"/>
<path fill-rule="evenodd" clip-rule="evenodd" d="M223.629 401.276H193.564C189.005 401.276 185.307 397.578 185.307 393.019C185.307 388.46 189.005 384.761 193.564 384.761H223.629C228.188 384.761 231.887 388.46 231.887 393.019C231.887 397.578 228.188 401.276 223.629 401.276ZM223.629 425.676H193.564C189.005 425.676 185.307 421.978 185.307 417.419C185.307 412.86 189.005 409.161 193.564 409.161H223.629C228.188 409.161 231.887 412.86 231.887 417.419C231.887 421.978 228.188 425.676 223.629 425.676ZM223.629 450.078H193.564C189.005 450.078 185.307 446.38 185.307 441.821C185.307 437.262 189.005 433.563 193.564 433.563H223.629C228.188 433.563 231.887 437.262 231.887 441.821C231.887 446.38 228.188 450.078 223.629 450.078ZM165.651 375.125C164.222 375.127 162.817 374.758 161.573 374.054C160.329 373.351 159.289 372.337 158.554 371.111L103.788 279.771C103.229 278.841 102.86 277.81 102.7 276.737C102.541 275.664 102.594 274.57 102.858 273.518C103.121 272.466 103.59 271.476 104.237 270.606C104.884 269.735 105.696 269 106.627 268.444C107.556 267.885 108.587 267.516 109.66 267.356C110.733 267.196 111.827 267.25 112.879 267.514C113.931 267.777 114.921 268.246 115.792 268.893C116.662 269.539 117.397 270.351 117.954 271.282L172.72 362.622C173.278 363.552 173.648 364.583 173.808 365.655C173.967 366.728 173.914 367.822 173.65 368.874C173.387 369.926 172.918 370.916 172.271 371.787C171.624 372.658 170.812 373.392 169.881 373.949C168.606 374.723 167.142 375.13 165.651 375.125ZM251.543 375.125C250.047 375.129 248.58 374.722 247.299 373.951C245.421 372.824 244.068 370.998 243.535 368.875C243.003 366.751 243.336 364.503 244.46 362.624L299.226 271.284C300.353 269.407 302.179 268.053 304.302 267.521C306.426 266.989 308.674 267.321 310.553 268.446C312.431 269.572 313.784 271.398 314.316 273.522C314.849 275.645 314.516 277.894 313.392 279.772L258.625 371.112C257.091 373.691 254.353 375.125 251.543 375.125Z" fill="#4997D3"/>
</g>
<defs>
<clipPath id="clip0_39_13">
<rect width="512" height="512" fill="white"/>
</clipPath>
</defs>
</svg>
