<svg width="512" height="512" viewBox="0 0 512 512" fill="none" xmlns="http://www.w3.org/2000/svg">
<g clip-path="url(#clip0_48_2)">
<path d="M212.261 390.242L151.93 450.573C126.918 475.586 86.4124 475.586 61.4212 450.578C36.4251 425.582 36.4251 385.073 61.4162 360.082L182.1 239.398C207.091 214.406 247.6 214.406 272.591 239.398C280.922 247.729 294.431 247.729 302.762 239.398C311.093 231.067 311.093 217.559 302.762 209.228C261.107 167.574 193.584 167.574 151.93 209.228L31.247 329.911C-10.4072 371.565 -10.4072 439.088 31.247 480.743C72.8963 522.419 140.425 522.419 182.101 480.743L242.432 420.411C250.763 412.08 250.763 398.572 242.432 390.241C234.101 381.91 220.592 381.911 212.261 390.242Z" fill="white"/>
<path d="M480.753 31.2402C439.099 -10.414 371.554 -10.414 329.9 31.2402L257.515 103.625C249.184 111.956 249.184 125.464 257.515 133.795C265.846 142.126 279.354 142.126 287.685 133.795L360.07 61.4104C385.061 36.4182 425.591 36.4182 450.583 61.4104C475.574 86.4015 475.574 126.911 450.583 151.902L317.847 284.64C292.854 309.632 252.346 309.632 227.355 284.64C219.024 276.309 205.516 276.309 197.185 284.64C188.854 292.971 188.854 306.479 197.185 314.81C238.839 356.464 306.362 356.464 348.017 314.81L480.753 182.073C522.408 140.419 522.408 72.8944 480.753 31.2402Z" fill="white"/>
</g>
<defs>
<clipPath id="clip0_48_2">
<rect width="512" height="512" fill="white"/>
</clipPath>
</defs>
</svg>
