<svg width="291" height="512" viewBox="0 0 291 512" fill="none" xmlns="http://www.w3.org/2000/svg">
<path d="M247.467 136.533H196.267V42.6667H213.333C215.597 42.6667 217.767 41.7676 219.367 40.1673C220.968 38.567 221.867 36.3965 221.867 34.1333V8.53333C221.867 6.27015 220.968 4.09967 219.367 2.49936C217.767 0.899045 215.597 0 213.333 0L76.8 0C74.5368 0 72.3663 0.899045 70.766 2.49936C69.1657 4.09967 68.2667 6.27015 68.2667 8.53333V34.1333C68.2667 36.3965 69.1657 38.567 70.766 40.1673C72.3663 41.7676 74.5368 42.6667 76.8 42.6667H93.8667V136.533H42.6667C19.1125 136.562 0.0288 155.646 0 179.2V443.733C0.0288 467.287 19.1125 486.371 42.6667 486.4V503.467C42.6667 505.73 43.5657 507.9 45.166 509.501C46.7663 511.101 48.9368 512 51.2 512H85.3333C87.5965 512 89.767 511.101 91.3673 509.501C92.9676 507.9 93.8667 505.73 93.8667 503.467V486.4H196.267V503.467C196.267 505.73 197.166 507.9 198.766 509.501C200.366 511.101 202.537 512 204.8 512H238.933C241.197 512 243.367 511.101 244.967 509.501C246.568 507.9 247.467 505.73 247.467 503.467V486.4C271.021 486.371 290.105 467.287 290.133 443.733V179.2C290.105 155.646 271.021 136.562 247.467 136.533ZM85.3333 17.0667H204.8V25.6H85.3333V17.0667ZM110.933 42.6667H179.2V136.533H110.933V42.6667ZM76.8 494.933H59.7333V486.4H76.8V494.933ZM230.4 494.933H213.333V486.4H230.4V494.933ZM273.067 443.733C273.067 457.871 261.604 469.333 247.467 469.333H42.6667C28.5291 469.333 17.0667 457.871 17.0667 443.733V179.2C17.0667 165.062 28.5291 153.6 42.6667 153.6H247.467C261.604 153.6 273.067 165.062 273.067 179.2V443.733Z" fill="#4997D3"/>
<path d="M145.067 170.667C142.803 170.667 140.633 171.566 139.033 173.166C137.432 174.767 136.533 176.937 136.533 179.2V443.734C136.533 445.997 137.432 448.167 139.033 449.768C140.633 451.368 142.803 452.267 145.067 452.267C147.33 452.267 149.5 451.368 151.101 449.768C152.701 448.167 153.6 445.997 153.6 443.734V179.2C153.6 176.937 152.701 174.767 151.101 173.166C149.5 171.566 147.33 170.667 145.067 170.667ZM213.333 187.734C211.07 187.734 208.9 188.633 207.299 190.233C205.699 191.833 204.8 194.004 204.8 196.267V426.667C204.8 428.93 205.699 431.101 207.299 432.701C208.9 434.301 211.07 435.2 213.333 435.2C215.596 435.2 217.767 434.301 219.367 432.701C220.968 431.101 221.867 428.93 221.867 426.667V196.267C221.867 194.004 220.968 191.833 219.367 190.233C217.767 188.633 215.596 187.734 213.333 187.734ZM76.7999 187.734C74.5368 187.734 72.3663 188.633 70.766 190.233C69.1656 191.833 68.2666 194.004 68.2666 196.267V426.667C68.2666 428.93 69.1656 431.101 70.766 432.701C72.3663 434.301 74.5368 435.2 76.7999 435.2C79.0631 435.2 81.2336 434.301 82.8339 432.701C84.4342 431.101 85.3333 428.93 85.3333 426.667V196.267C85.3333 194.004 84.4342 191.833 82.8339 190.233C81.2336 188.633 79.0631 187.734 76.7999 187.734Z" fill="#4997D3"/>
</svg>
