<svg width="512" height="512" viewBox="0 0 512 512" fill="none" xmlns="http://www.w3.org/2000/svg">
<path d="M137.829 62.4848C139.818 62.4848 141.726 61.6946 143.132 60.2881C144.539 58.8816 145.329 56.9739 145.329 54.9848V40.7168C145.329 36.5748 141.972 33.2168 137.829 33.2168C133.686 33.2168 130.329 36.5748 130.329 40.7168V54.9838C130.329 55.9688 130.523 56.9442 130.9 57.8542C131.276 58.7643 131.829 59.5912 132.525 60.2877C133.222 60.9843 134.049 61.5368 134.959 61.9138C135.869 62.2908 136.844 62.4848 137.829 62.4848ZM130.329 171.911V186.178C130.329 190.32 133.686 193.678 137.829 193.678C141.972 193.678 145.329 190.32 145.329 186.178V171.911C145.329 167.769 141.972 164.411 137.829 164.411C133.686 164.411 130.329 167.769 130.329 171.911ZM91.186 77.4108C91.8814 78.1122 92.7084 78.6694 93.6197 79.0503C94.5309 79.4312 95.5085 79.6284 96.4962 79.6305C97.4838 79.6326 98.4622 79.4396 99.3751 79.0626C100.288 78.6856 101.117 78.132 101.816 77.4336C102.514 76.7351 103.068 75.9057 103.445 74.9927C103.822 74.0798 104.014 73.1014 104.012 72.1137C104.01 71.1261 103.813 70.1486 103.432 69.2373C103.051 68.3261 102.493 67.4991 101.792 66.8038L91.703 56.7158C91.0066 56.0193 90.1797 55.4668 89.2698 55.0899C88.3598 54.7129 87.3845 54.5189 86.3995 54.5189C85.4145 54.5189 84.4392 54.7129 83.5292 55.0899C82.6193 55.4668 81.7924 56.0193 81.096 56.7158C80.3996 57.4123 79.8472 58.2392 79.4703 59.1492C79.0934 60.0592 78.8995 61.0345 78.8996 62.0195C78.8997 63.0045 79.0938 63.9798 79.4708 64.8897C79.8479 65.7996 80.4004 66.6264 81.097 67.3228L91.186 77.4108ZM184.474 149.484C183.058 148.121 181.165 147.368 179.2 147.387C177.235 147.405 175.356 148.194 173.967 149.584C172.577 150.973 171.788 152.852 171.77 154.817C171.751 156.781 172.503 158.675 173.866 160.091L183.955 170.18C185.371 171.542 187.264 172.295 189.229 172.277C191.194 172.258 193.073 171.469 194.462 170.08C195.852 168.691 196.641 166.812 196.659 164.847C196.678 162.882 195.926 160.988 194.563 159.573L184.474 149.484ZM65.099 120.948H79.367C83.51 120.948 86.867 117.59 86.867 113.448C86.867 109.306 83.51 105.948 79.367 105.948H65.099C60.956 105.948 57.599 109.306 57.599 113.448C57.599 117.59 60.956 120.948 65.099 120.948ZM188.792 113.448C188.792 114.433 188.986 115.408 189.363 116.318C189.74 117.228 190.292 118.055 190.989 118.751C191.685 119.448 192.512 120 193.422 120.377C194.332 120.754 195.307 120.948 196.292 120.948H210.56C214.703 120.948 218.06 117.59 218.06 113.448C218.06 109.306 214.703 105.948 210.56 105.948H196.292C194.303 105.948 192.395 106.738 190.989 108.145C189.582 109.551 188.792 111.459 188.792 113.448ZM91.185 149.484L81.096 159.573C76.355 164.314 79.78 172.377 86.4 172.377C87.3852 172.378 88.361 172.185 89.2712 171.808C90.1815 171.431 91.0082 170.877 91.704 170.18L101.793 160.091C102.489 159.394 103.042 158.567 103.419 157.657C103.796 156.747 103.99 155.772 103.99 154.787C103.99 153.802 103.796 152.827 103.419 151.917C103.042 151.007 102.489 150.18 101.793 149.483C101.096 148.787 100.269 148.234 99.359 147.857C98.449 147.481 97.4736 147.287 96.4886 147.287C95.5037 147.287 94.5283 147.481 93.6183 147.858C92.7083 148.235 91.8815 148.787 91.185 149.484ZM184.473 77.4108L194.562 67.3228C195.259 66.6264 195.811 65.7996 196.188 64.8897C196.565 63.9798 196.759 63.0045 196.759 62.0195C196.759 61.0345 196.566 60.0592 196.189 59.1492C195.812 58.2392 195.259 57.4123 194.563 56.7158C193.867 56.0193 193.04 55.4668 192.13 55.0899C191.22 54.7129 190.244 54.5189 189.26 54.5189C188.275 54.5189 187.299 54.7129 186.389 55.0899C185.479 55.4668 184.652 56.0193 183.956 56.7158L173.866 66.8038C172.459 68.2104 171.669 70.1181 171.669 72.1073C171.669 74.0965 172.459 76.0042 173.866 77.4108C175.273 78.8174 177.18 79.6076 179.169 79.6076C181.159 79.6076 183.066 78.8174 184.473 77.4108ZM511.98 453.889C511.427 440.119 498.591 428.904 484.215 431.261C478.439 420.216 503.68 470.585 399.994 263.215L364.454 192.135C357.401 178.028 337.278 178.075 330.249 192.135C320.822 210.99 311.394 229.845 301.966 248.699L259.438 163.643C253.038 150.837 234.743 150.837 228.341 163.643L193.478 233.37C192.003 236.319 187.781 236.341 186.296 233.37C179.893 220.565 161.6 220.566 155.198 233.37L98.806 346.159L97.278 343.102C92.551 333.649 79.131 333.746 74.453 343.102L14.111 463.783H7.5C3.357 463.783 0 467.141 0 471.283C0 475.425 3.357 478.783 7.5 478.783H385.238C389.381 478.783 392.738 475.425 392.738 471.283C392.738 467.141 389.381 463.783 385.238 463.783H302.156C301.361 463.783 300.573 463.625 299.839 463.318C299.105 463.011 298.44 462.561 297.882 461.995C297.323 461.428 296.883 460.756 296.587 460.018C296.291 459.28 296.144 458.49 296.156 457.695C296.203 454.408 299.253 451.408 302.815 451.82C308.529 452.483 313.656 448.725 314.732 443.078C316.012 436.382 321.893 431.529 328.708 431.529C333.722 431.529 338.503 434.223 341.077 438.742C343.545 443.076 348.57 445.287 353.309 444.247C354.399 444.008 356.909 442.902 360.36 444.015C369.13 446.844 370.805 438.959 379.262 440.64C385.153 441.815 390.821 437.821 391.61 431.916C393.154 420.364 403.111 411.653 414.771 411.653C423.19 411.653 430.997 416.229 435.142 423.594C437.548 427.869 442.134 430.321 446.808 430.113C447.904 430.064 448.988 429.87 450.032 429.535C458.932 426.68 468.18 431.41 471.583 439.625C472.678 442.276 474.717 444.426 477.305 445.66C479.894 446.894 482.849 447.123 485.597 446.304C491.225 444.641 496.769 448.939 496.992 454.489C497.043 455.691 496.851 456.891 496.426 458.017C496.001 459.142 495.353 460.17 494.52 461.039C493.688 461.907 492.688 462.598 491.581 463.069C490.474 463.541 489.283 463.784 488.08 463.783H420.241C416.098 463.783 412.741 467.141 412.741 471.283C412.741 475.425 416.098 478.783 420.241 478.783H488.08C501.656 478.783 512.525 467.528 511.98 453.889ZM343.666 198.842C345.189 195.799 349.521 195.811 351.037 198.842L384.186 265.141L357.751 292.151C357.442 292.465 357.025 292.651 356.584 292.67C356.143 292.689 355.712 292.54 355.377 292.253L339.356 278.467C332.203 272.31 321.387 273.276 315.438 280.612L306.849 291.207C306.7 291.392 306.514 291.544 306.303 291.654C306.093 291.764 305.862 291.829 305.625 291.846C305.388 291.863 305.15 291.831 304.926 291.752C304.701 291.673 304.496 291.549 304.322 291.387L299.585 287.005L343.666 198.842ZM85.864 353.819L106.336 394.763L95.447 405.889L83.442 395.559C78.089 390.953 70.571 391.018 65.379 394.785L85.864 353.819ZM30.883 463.783L52.792 419.964C63.541 422.656 68.358 414.142 73.981 407.207L85.957 417.512C91.777 422.521 100.537 422.135 105.899 416.658L113.434 408.959L140.847 463.783H30.883ZM194.425 463.783H157.618L107.191 362.929L168.617 240.079C169.5 238.314 171.998 238.313 172.881 240.08C179.891 254.1 199.893 254.085 206.897 240.08L241.76 170.351C242.643 168.586 245.14 168.586 246.023 170.351L293.583 265.47C289.333 273.966 202.624 447.386 194.425 463.783ZM454.524 413.712C452.09 413.774 449.671 414.11 447.312 414.714C440.298 403.494 427.97 396.652 414.772 396.652C397.172 396.652 381.935 408.74 377.622 425.429C372.575 425.314 367.601 426.643 363.285 429.261C359.792 428.4 356.154 428.299 352.619 428.966C347.179 421.233 338.25 416.528 328.709 416.528C315.9 416.528 304.709 424.874 300.877 436.82C290.1 437.474 281.315 446.397 281.158 457.481V457.482C281.129 459.54 281.46 461.855 282.02 463.781H211.198L292.6 300.976L294.138 302.399H294.139C301.229 308.957 312.418 308.159 318.504 300.653L327.093 290.059C327.239 289.878 327.42 289.728 327.625 289.619C327.83 289.509 328.055 289.442 328.286 289.421C328.518 289.4 328.751 289.426 328.972 289.497C329.194 289.569 329.398 289.684 329.574 289.836L345.596 303.623C352.268 309.363 362.318 308.932 368.474 302.643L391.285 279.335L458.545 413.854C457.209 413.724 455.866 413.677 454.524 413.712ZM137.829 158.322C154.47 158.322 169.662 149.181 177.477 134.468C178.375 132.714 178.547 130.678 177.956 128.798C177.366 126.919 176.059 125.347 174.319 124.423C172.579 123.499 170.546 123.296 168.657 123.858C166.769 124.421 165.178 125.704 164.228 127.43C159.023 137.232 148.907 143.32 137.829 143.32C121.357 143.32 107.956 129.919 107.956 113.447C107.956 96.9748 121.357 83.5738 137.829 83.5738C148.907 83.5738 159.022 89.6618 164.228 99.4638C164.69 100.334 165.319 101.104 166.079 101.731C166.839 102.358 167.715 102.829 168.657 103.117C169.598 103.406 170.588 103.506 171.569 103.412C172.549 103.318 173.502 103.031 174.372 102.569C175.241 102.107 176.012 101.478 176.639 100.718C177.266 99.9585 177.737 99.0826 178.025 98.1407C178.313 97.1988 178.413 96.2093 178.319 95.2288C178.225 94.2482 177.939 93.2957 177.477 92.4258C169.663 77.7118 154.47 68.5718 137.829 68.5718C113.086 68.5718 92.955 88.7018 92.955 113.446C92.955 138.19 113.086 158.322 137.829 158.322Z" fill="#4997D3"/>
</svg>
